<?xml version="1.0" encoding="UTF-8"?>
<svg id="_图层_2" data-name="图层 2" xmlns="http://www.w3.org/2000/svg" viewBox="0 0 193.89 68.71">
  <defs>
    <style>
      .cls-1 {
        fill: #0099de;
        fill-rule: evenodd;
      }
    </style>
  </defs>
  <g id="_图层_1-2" data-name="图层 1">
    <g>
      <path id="SVGID" class="cls-1" d="M193.4,26.75c-3.32-19.45-23.69-26.06-40.75-24.08-11.2,1.3-16.84,3.12-24,8.72-5.43,4.24-10.09,13.57-8.28,24.07,1.65,9.51,7.22,14.99,13.9,18.69,22.57,12.5,64.67,5.1,59.13-27.4ZM162.21,54.99c-13.73,2.02-25.72-3.06-27.29-18.48-1.64-16.04,3.48-26.41,17.05-29.05,6.53-1.26,14.46-.29,19.3,3.03,4.63,3.19,6.66,7.88,7.48,15.31,1.66,15.26-3.47,27.27-16.53,29.19Z"/>
      <polygon id="SVGID-2" data-name="SVGID" class="cls-1" points="94.08 8.38 94.08 53.84 86.84 59.07 114.78 59.14 107.55 53.92 107.51 8.35 114.79 3.2 86.84 3.15 94.08 8.38"/>
      <path id="SVGID-3" data-name="SVGID" class="cls-1" d="M84.3,53.27c-1.01-.34-1.59-.54-2.57-.9-1.73-.65-3.52-1.33-5.26-2.1-9.24-4.07-18.67-10.6-25.17-18,.48-.35,6.86-1.88,8.24-2.36,7.2-2.52,16.94-7.36,13.71-17.47-2.65-8.27-13.06-10.7-20.95-11.73-12.76-2.09-36.07.47-45.41,7.52l1.37.65c1.6.56,3.51.8,5.07,1.8v19.86c-3.68.55-7.6-1.08-10.96-1.25l-2.39,5.4,13.34,1.29.02,17.89c-1.51.86-7.25,3.84-8.1,5.2l28.58.02c-2.23-3.51-7.16-2.69-7.16-7.41l.02-16.25,16.65-1.78c6.84,7.69,16.24,25.89,20.54,35.08,2.16-1.24,6.55-9.23,22.94-14.18l-2.54-1.25ZM26.69,30.64l.11-23.48c10.12-3.41,33.59-2.27,32.36,10.35-.54,5.59-7.12,8.85-12.42,10.38-5.31,1.54-14.06,3.06-20.06,2.75Z"/>
    </g>
  </g>
</svg>