<?xml version="1.0" encoding="UTF-8"?>
<svg id="_图层_2" data-name="图层 2" xmlns="http://www.w3.org/2000/svg" viewBox="0 0 151.44 29.14">
  <defs>
    <style>
      .cls-1 {
        fill: none;
        stroke: #e2318c;
        stroke-linejoin: round;
        stroke-width: 4.1px;
      }
    </style>
  </defs>
  <g id="_图层_1-2" data-name="图层 1">
    <g>
      <path class="cls-1" d="M50.34.44v16.4c0,3.25,3.47,5.33,6.34,3.78,3.88-2.09,8.25-4.98,10.17-7.75,3.39-4.87,1.32-10.72-3.09-10.72s-6.45,5.42-3.13,10.72c1.78,2.84,6.4,5.72,10.32,7.79,2.86,1.51,6.3-.57,6.3-3.8V.65"/>
      <circle class="cls-1" cx="11.23" cy="11.23" r="9.18"/>
      <circle class="cls-1" cx="35.08" cy="11.23" r="9.18"/>
      <line class="cls-1" x1="2.05" y1="11.23" x2="2.05" y2="29.14"/>
      <circle class="cls-1" cx="92.51" cy="11.23" r="9.18"/>
      <circle class="cls-1" cx="116.36" cy="11.23" r="9.18"/>
      <line class="cls-1" x1="83.33" y1="11.23" x2="83.33" y2="29.14"/>
      <circle class="cls-1" cx="140.21" cy="11.23" r="9.18"/>
      <line class="cls-1" x1="131.03" y1="11.23" x2="131.03" y2="29.14"/>
      <line class="cls-1" x1="44.26" y1="11.23" x2="44.26" y2="21.17"/>
    </g>
  </g>
</svg>