<?xml version="1.0" encoding="UTF-8"?>
<svg id="_图层_2" data-name="图层 2" xmlns="http://www.w3.org/2000/svg" viewBox="0 0 135.92 42.73">
  <defs>
    <style>
      .cls-1 {
        fill: #8c8c8c;
      }
    </style>
  </defs>
  <g id="_图层_1-2" data-name="图层 1">
    <g>
      <g>
        <path class="cls-1" d="M135.5,1.58c-.28-.51-.68-.9-1.18-1.17-.51-.27-1.03-.41-1.56-.41s-1.05.14-1.55.41c-.51.27-.9.66-1.18,1.17-.29.51-.43,1.03-.43,1.58s.14,1.07.42,1.57c.28.51.67.9,1.17,1.17.5.28,1.03.42,1.57.42s1.08-.14,1.58-.42c.5-.27.89-.66,1.16-1.17.28-.5.42-1.02.42-1.57s-.14-1.07-.42-1.58ZM135.05,4.47c-.23.42-.55.75-.98.98-.41.23-.85.35-1.31.35s-.89-.12-1.31-.35-.75-.56-.97-.98c-.24-.41-.35-.85-.35-1.31s.11-.89.35-1.32c.24-.42.56-.75.99-.97.42-.23.85-.35,1.29-.35s.88.12,1.3.35c.42.22.75.55.98.97.24.43.35.87.35,1.32s-.11.9-.34,1.31Z"/>
        <path class="cls-1" d="M133.82,4.25c-.2-.32-.36-.54-.51-.68-.07-.07-.16-.13-.28-.18.29-.02.53-.13.7-.31.18-.18.27-.4.27-.65,0-.17-.05-.34-.16-.5-.11-.15-.25-.26-.43-.32-.17-.07-.46-.1-.87-.1h-1.16v3.4h.54v-1.44h.32c.2,0,.34.04.44.11.15.11.34.37.58.8l.31.53h.66l-.41-.66ZM132.59,3h-.67v-1.03h.63c.27,0,.45.02.55.06.1.04.18.1.23.18.06.08.09.17.09.27,0,.15-.06.28-.18.37-.11.1-.33.15-.65.15Z"/>
      </g>
      <polygon class="cls-1" points="58.73 3.27 53.07 3.27 51.54 11.95 57.2 11.95 58.73 3.27"/>
      <polygon class="cls-1" points="53.14 26.41 50.27 42.73 55.93 42.73 58.81 26.41 53.14 26.41"/>
      <path class="cls-1" d="M66.34,10.39l.57-1.58h14.84l.98-5.54h-13.8L70.12,0h-8.05s-2.3,13.03-2.3,13.03h1.97l-4.23,24.05h13.45l-.2,1.2h-6.6l-.78,4.44h10.13c1.32,0,2.46-.95,2.68-2.26l5.3-30.08h-15.14ZM71.81,31.81h-1.41l.65-3.69h-4.76l-.64,3.69h-1.41l.91-5.44h7.69l-1.02,5.44ZM73.77,21.1h-1.48l.65-3.71h-4.75l-.65,3.71h-1.45l.96-5.44h7.69l-.97,5.44Z"/>
      <path class="cls-1" d="M124.64,17.26l2.47-14h-23.56l-2.47,14h9.78l-.93,2.57h-10.82l.91-5.18h-16.38l-.93,5.26h4.39l-.82,4.68h-4.39l-.93,5.26h4.54l-2.26,12.87h10.19l.93-5.28h-3.84l1.33-7.59h5.49l-2.27,12.87h6.3l2.76-16.2h3.36l-2.8,7.69h11.72l.78-4.43h-5.63l1.17-3.26h6.23l-1.86,10.89h-6.33l-.91,5.31h10.4c1.33,0,2.46-.95,2.69-2.26l3.62-20.63h-11.39l.93-2.57h8.53ZM98.26,24.59h-5.49l.82-4.68h5.49l-.83,4.68ZM106.94,11.24l.36-2.01h14.05l-.36,2.01h-14.05Z"/>
      <path class="cls-1" d="M23.96.01h-11.9l-.58,3.26H0s0,39.46,0,39.46h30.46c1.51,0,2.74-1.23,2.74-2.74V3.27h-9.81L23.96.01ZM27.01,10.07v25.94H6.2v-3.35l18.24-2.24v-6.72l-18.24,2.24v-3.7l18.24-2.24v-6.72l-18.24,2.25v-5.46h20.81Z"/>
      <polygon class="cls-1" points="90.84 10.14 100.81 10.14 102.02 3.27 93.34 3.27 94.52 0 86.22 0 83.92 12.94 89.82 12.94 90.84 10.14"/>
      <polygon class="cls-1" points="58.19 14.57 52.65 14.57 50.94 24.29 56.47 24.29 58.19 14.57"/>
      <path class="cls-1" d="M36.1,42.73h13.74V3.26h-13.74v39.46ZM41.66,8.81h2.63v28.28h-2.63V8.81Z"/>
    </g>
  </g>
</svg>